<svg xmlns="http://www.w3.org/2000/svg" viewBox="0 0 102.18 93.41"><defs><style>.cls-1{fill:#fec91e;}.cls-2{fill:#fe9d1f;}.cls-3{fill:#231f20;}</style></defs><title>2Muntjes</title><g id="Laag_2" data-name="Laag 2"><g id="Tekstwolkjes"><path class="cls-1" d="M76.09,85.07c.19-.87,1-1.19,1.62-1.43,2-.73,3.36-2.34,5.12-3.39.48-.28.11-.91.46-1.31a18.65,18.65,0,0,0,2.74-3c.09-.16.29-.38.43-.37.94,0,1-.68,1-1.29-.08-1.13,1-1.85.93-3a.6.6,0,0,1,.28.9A8.89,8.89,0,0,0,88,74.08c-.18.57-.41,1,.18,1.4a.33.33,0,0,1,0,.45.51.51,0,0,1-.68.2c-.72-.38-1,.14-1.43.56a13,13,0,0,0-3,4c-.22.51-1,.46-1.45.78-.82.53-1.4,1.39-2.28,1.78A8.13,8.13,0,0,0,76.55,85C76.47,85.12,76.25,85.06,76.09,85.07Z"/><path class="cls-1" d="M86.37,70.74c.13,1.21-1,1.2-1.64,1.53a.82.82,0,0,1-1.23-.64.63.63,0,0,0-.65-.48.53.53,0,0,1-.53-.56,4,4,0,0,0,1.79.16c.48-.07.88-.17,1.11.39.14.35.36.14.53,0S86.07,70.74,86.37,70.74Z"/><path class="cls-1" d="M82.29,70.57c-.59-.64-1.6-.63-2.12-1.38C81.44,69.14,82,69.51,82.29,70.57Z"/><path class="cls-1" d="M88.3,71.15c-.63,0-1.14-.35-1.73-.45C87.57,69.88,88.1,70,88.3,71.15Z"/><path class="cls-1" d="M78.73,69c-.64-.37-.21-.56.12-.77C79,68.53,78.74,68.75,78.73,69Z"/><path class="cls-1" d="M78,70.31a.86.86,0,0,1-.8.61c-.48,0-.55-.33-.53-.71s.14-.61.49-.56A1.07,1.07,0,0,1,78,70.31Z"/><path class="cls-1" d="M56.12,52.37c0-.16.47,0,.24-.33a1.33,1.33,0,0,0-.8-.51,7,7,0,0,0-2.87-.27,1.06,1.06,0,0,1-1-.36,2.43,2.43,0,0,0-2.19-.78c-.37.06-.8.07-1-.42-.07-.2-.14-.16-.34-.1a3,3,0,0,1-2.57-.73c-.32-.21-.26-.51,0-.73a5.09,5.09,0,0,1,.63-.39.44.44,0,0,0-.56-.33c-2,.5-3.44-.58-4.91-1.69a6.14,6.14,0,0,0-2.05-.8,10,10,0,0,1-3.19-1.33,2.84,2.84,0,0,0-1.6-.29c-.26,0-.67.08-.75-.05-.78-1.25-2.53-1.16-3.27-2.65-.6-1.19-2-1.94-2.5-3.29C27,36.14,26,35.53,25.29,34.63a24.88,24.88,0,0,1-2.19-2.77,3.64,3.64,0,0,1,.13-3.39,21.36,21.36,0,0,1,3.14-4.24,5.25,5.25,0,0,0,1.06-1.6,15.15,15.15,0,0,1,4.11-5.52A16.41,16.41,0,0,0,34,14.16c.39-.63,1.2-.73,1.68-1.27a28.14,28.14,0,0,0,3.6-4.39.72.72,0,0,1,.52-.39,10,10,0,0,0,3-1.47c.41-.23.84-.6,1.34-.26s.83.66.5,1.36c-.22.45.3.49.5.34.79-.57,1.82-.51,2.6-1.22.53-.48,1.46,0,2.21,0,.21,0,.16.28.13.49a1.53,1.53,0,0,0,1.54,1.93c.35,0,.72,0,1.07.05.87.16,1.09.75.56,1.45-.24.32-.62.64-.22,1s.73.09,1-.22a2.32,2.32,0,0,1,1.36-.69C57.28,10.52,58,9,58.8,7.62a24.68,24.68,0,0,1,3.92-5.68c.21-.21.44-.48.74-.37a1.68,1.68,0,0,0,1.64-.31c1.18-.87,1.93.25,2.75.64A1.41,1.41,0,0,0,69.33,2,1.56,1.56,0,0,1,71,1.8c.29.16.55,0,.83-.09a.91.91,0,0,1,1.32.94,1.49,1.49,0,0,0,1.5,1.77C75.9,4.59,76,4.7,76.07,6c0,.19-.07.42.16.51s.34-.12.49-.23c1.06-.84,1.39-.84,2.57-.13a2.79,2.79,0,0,0,.81.29,1.29,1.29,0,0,1,1.08,1c.18.66.65.87,1.34,1,1.22.28,2.64-.2,3.66,1,.35.41,1.07.44,1.36-.4.2-.57.81-.81,1.25-1.17a.47.47,0,0,1,.78.26,2.81,2.81,0,0,0,.92,1.2,1.17,1.17,0,0,1,.43,1.3,21.38,21.38,0,0,0-.76,4.77,34.87,34.87,0,0,1-.8,3.57c-.17.68-.49,1.46.2,2a2.1,2.1,0,0,0,2.5-.59c.15-.16.31-.32.46-.5.44-.53.86-.42,1.11.14a3.65,3.65,0,0,0,.83,1.18,1,1,0,0,1,.19,1.17,8.77,8.77,0,0,0-.28,2.1,29.31,29.31,0,0,1-1.21,5.14,2.52,2.52,0,0,1-1.33,1.58c-.81.41-.76,1.44-1.23,2.14a8.75,8.75,0,0,0-1.67,4.52.14.14,0,0,1,0,.09c-.72,1.17-1.43,2.34-2.19,3.48-.23.35-.58.67-1,.09a.38.38,0,0,0-.7.09A3.07,3.07,0,0,1,83.82,43c-1.12,1-1.54,2.36-2.41,3.48a13.37,13.37,0,0,1-4,3.21,38.91,38.91,0,0,1-5.21,2.15.61.61,0,0,1-.77.22,12.72,12.72,0,0,0-4.44.06c-1.83.18-3.65,0-5.46.16a1.31,1.31,0,0,1-.47-.09,1.8,1.8,0,0,0-1.4.13A4.37,4.37,0,0,1,56.12,52.37Zm-7.59-4.61c-.27,0-.68-.07-.67.42,0,.24.17.62.41.53s1-.14,1-.58S48.88,47.78,48.53,47.76Z"/><path class="cls-2" d="M86.37,70.74l.2,0c.59.1,1.1.5,1.73.45a.13.13,0,0,1,.08.14c.1,1.12-1,1.84-.93,3,0,.61,0,1.31-1,1.29-.14,0-.34.21-.43.37a18.65,18.65,0,0,1-2.74,3c-.35.4,0,1-.46,1.31-1.76,1-3.13,2.66-5.12,3.39-.67.24-1.43.56-1.62,1.43l-.62.07c-.35-.36-.66,0-1,.08s-.64.45-1.07.58a12.6,12.6,0,0,0-4.53,2.43l-.17.08a2.79,2.79,0,0,0-2.75.86l-.43,0a1.08,1.08,0,0,0-1.32.39.76.76,0,0,1-.81.15c-.1-.38-.29-.39-.55-.14-1.13.68-2.39.43-3.6.45-.58,0-1,.44-1.58.36-3.41-.54-6.74.71-10.15.44-.74-.06-1.45-.25-2.18-.28a77.27,77.27,0,0,0-7.76,0,9.33,9.33,0,0,1-4-.28,13.37,13.37,0,0,0-2.66-.14,1.55,1.55,0,0,1-1.47-.88c-.33-.72-1.18-.53-1.83-.61a14.29,14.29,0,0,0-1.86,0c.09-.52.94-.27.7-.81s-.83-.6-1.33-.69c-1.62-.32-3.35-.3-4.68-1.54a2.94,2.94,0,0,0-1.81-.6c-1.43-.1-2.31-1.07-3.37-1.76a6,6,0,0,1-.71-.5c-.35-.28-1-.64-.72-1s.44-1.13,1.42-.93a13,13,0,0,0,2.7-.07c.64,0,.62-.33.33-.74-.09-.13-.26-.19-.37-.31-.46-.45-1.51-.62-1.25-1.41.33-1,.38-2.42,1.89-2.71a1.5,1.5,0,0,0,.65-.4,2.61,2.61,0,0,1,2.44-.39c1.2.76,2.48.47,3.74.33a3.83,3.83,0,0,1,2.27,0,3.85,3.85,0,0,0,2.91,0,3.16,3.16,0,0,1,2.7.06,1.14,1.14,0,0,0,1.25-.06,2.49,2.49,0,0,1,2.46.08c0,.44.35.33.65.34,1.29,0,2.58-.34,3.89,0,.42.09.91.07,1.07-.51.43-.38.92-.19,1.4-.16.51.7,1.21.28,1.83.3.83,0,1.56-.59,2.42-.42a10.7,10.7,0,0,0,2.4,0c2.36-.11,4.43-1.52,6.82-1.48A.74.74,0,0,0,58,73a4.64,4.64,0,0,1,2.38-1.37c2.09-.66,4.35-.92,6-2.55.26-.26.88.31.88-.42l.3-.23c.37.06.5-.1.42-.46a.87.87,0,0,1,.78-.7c.78-.36,1.67-.31,2.42-.93a4.61,4.61,0,0,1,1.57-1,.51.51,0,0,1,.4.36c0,.91-.07,1.88,1.15,2.2a4,4,0,0,1,1.74.72.59.59,0,0,0,.73-.07c.56-.64,1.3-.42,2-.48l0,.21c-.33.21-.76.4-.12.77.45.29,1-.21,1.44.18.52.75,1.53.74,2.12,1.38l0,0a.53.53,0,0,0,.53.56.63.63,0,0,1,.65.48.82.82,0,0,0,1.23.64C85.39,71.94,86.5,72,86.37,70.74ZM67.08,87.13a2.82,2.82,0,0,0-1.62.36.34.34,0,0,0,0,.26,2.06,2.06,0,0,0,1.58,0c.28-.1.77,0,.7-.44S67.27,87.17,67.08,87.13ZM78,70.31a1.07,1.07,0,0,0-.84-.66c-.35-.05-.48.24-.49.56s0,.75.53.71A.86.86,0,0,0,78,70.31Z"/><path class="cls-1" d="M67.31,68.61c0,.73-.62.16-.88.42-1.66,1.63-3.92,1.89-6,2.55A4.64,4.64,0,0,0,58,73a.74.74,0,0,1-.57.34c-2.39,0-4.46,1.37-6.82,1.48a10.7,10.7,0,0,1-2.4,0c-.86-.17-1.59.44-2.42.42-.62,0-1.32.4-1.83-.3.61-.44.13-.5-.21-.53a27.62,27.62,0,0,0-3.38-.26c-1.89,0-3.76-.22-5.66-.15-1.16,0-2.38-.48-3.61-.46a22.25,22.25,0,0,1-3.05-.58A15.24,15.24,0,0,1,24,71.66c-1.17-.46-2.49-.06-3.58-.84-.38-.27-.88-.35-1-.9a.63.63,0,0,0-.46-.33c-2.1-.41-3.67-2-5.69-2.6a29.63,29.63,0,0,1-5.48-2.83,16.88,16.88,0,0,1-3.62-2.95C3,60,2.86,58.61,2.8,57.13A2.73,2.73,0,0,0,2.56,56c-.26-.54-.5-1,0-1.53a1,1,0,0,0-.16-1.27,2.52,2.52,0,0,1-.49-2.28c.17-1.21-.19-2.39-.07-3.59a5.48,5.48,0,0,0,0-1.67c-.15-.76,1.51-1.47,2.17-1s1,.17,1-.47a20.62,20.62,0,0,1,.65-4.49c.13-.76.39-1.31,1.33-1,.42.12.63-.21.88-.47s.47-.33.7.13A8.53,8.53,0,0,1,9,39.39c.13.36.33.72.82.68s.62-.39.63-.81,0-.79.47-.84.54.29.58.65a1.43,1.43,0,0,0,.09.27c1.09-.53.85.75,1.23.91a3.35,3.35,0,0,1,2,2.06c.12.33.49-.06.69-.24.44-.4,2.12-.24,2.27.29.29,1,1,.89,1.67.7a1.54,1.54,0,0,1,1.52.3c1.09.85,1.29.81,2.45-.11.35-.27.57,0,.67.23.41,1.11.93,2.21.53,3.45a1.29,1.29,0,0,0-.06.67c.57,1.91,0,3.85.19,5.77.14,1.34.52,2.65.65,4,.06.62.86,1.1,1.59,1.2,1.15.16,2.31.28,3.47.33a32,32,0,0,1,7.72.88c2.5.72,5.08,1.14,7.63,1.7.23.06.43.13.62-.06h0c.91,1.11,1.94,1.33,2.73.59.61-.07,1.11.38,1.71.37,0,1.26.79,1.93,2.17,2a7.74,7.74,0,0,1,4.06,1.34,2,2,0,0,0,2.17.47.9.9,0,0,1,.74.07.82.82,0,0,0,1.12-.06.77.77,0,0,1,1.06,0c.35.29.08.47-.1.71s0,.43.14.61a.55.55,0,0,1,.08.78c-.57.65-.1,1.25.13,1.78s.79.34,1.18.14A15,15,0,0,0,66,68.93,1.85,1.85,0,0,1,67.31,68.61Z"/><path class="cls-2" d="M50.85,62.38c-.6,0-1.1-.44-1.71-.37a14.92,14.92,0,0,0-2.73-.59h0a4.63,4.63,0,0,0-1.61-.61c-.85-.1-1.2-.94-1.91-1.33a9.55,9.55,0,0,0-2.78-1c-1.29-.24-1.85-1.42-3-1.85-.28-.1-.39-.46.12-.68a4.46,4.46,0,0,1,3.21-.12L38.91,54.6c0-.25.1-.54-.18-.74-.07-.4.32-.41.51-.6.91.17,1.17-.29,1-1.11a.9.9,0,0,1,1-.16c0,.07.08.19.14.21s.21-.07.25-.19l.2,0c.29.31.42.33,1.91.25l2,.23a1.84,1.84,0,0,0,1.47,0l1.27,0a1,1,0,0,0,1.1,0,9,9,0,0,1,2.26.11c.49,0,1,.19,1.44-.12h1.41c.47.22.94.36,1.36-.13h0a4.37,4.37,0,0,0,3.56,0,1.8,1.8,0,0,1,1.4-.13,1.31,1.31,0,0,0,.47.09c1.81-.19,3.63,0,5.46-.16a12.72,12.72,0,0,1,4.44-.06.61.61,0,0,0,.77-.22c.93,0,1.91-.29,2.74-.23a15.22,15.22,0,0,0,3.71-.33A4.55,4.55,0,0,0,81,50.22a2.65,2.65,0,0,1,1.27-.67c.49-.08.75-.47,1.06-.86.87-1.09,1.66-2.33,3.12-2.75.29-.09.37-.34.54-.52a16.06,16.06,0,0,0,2.72-3.83A1.39,1.39,0,0,1,92,41.42c.35.53.93.55,1.39.67s.33-.52.49-.89c.33.36,0,1,.68,1.16a1.07,1.07,0,0,1,1,.78.21.21,0,0,0,.18,0c1-.64,1.35.14,1.74.82.11.19.32.19.51.23a8.64,8.64,0,0,1,2.14.31c.46.22.67-.33,1-.59a4.32,4.32,0,0,1-.64,4.37,12.11,12.11,0,0,0-1.64,2.15c-.88,1.61-2.34,2.72-3.44,4.15-.57.73-1.6,1-2.27,1.79a17.4,17.4,0,0,1-3.89,3.1A13.37,13.37,0,0,1,83,61.29c-2.73.15-5.44.61-8.16.69a84.38,84.38,0,0,1-9.67.22c-1.46-.12-2.89.3-4.28.1-2.58-.36-5.15.05-7.71-.12C52.37,62.13,51.63,62.42,50.85,62.38Z"/><path class="cls-1" d="M78.8,68c-.68.06-1.42-.16-2,.48a.59.59,0,0,1-.73.07,4,4,0,0,0-1.74-.72c-1.22-.32-1.1-1.29-1.15-2.2.47.13.51.64.82.93.36,0,.35-.43.6-.55a1,1,0,0,1,1,0,.41.41,0,0,1,.06.61c-.2.29-.35.61,0,.86a1.37,1.37,0,0,0,1.32.39C77.58,67.74,78.23,67.37,78.8,68Z"/><path class="cls-1" d="M68.9,88.23a12.6,12.6,0,0,1,4.53-2.43c.43-.13.69-.47,1.07-.58s.62-.44,1-.08a2.88,2.88,0,0,1-1.75,1,10.27,10.27,0,0,0-3.88,2C69.48,88.47,69.22,88.32,68.9,88.23Z"/><path class="cls-1" d="M42.6,75c-.16.58-.65.6-1.07.51-1.31-.3-2.6.07-3.89,0-.3,0-.6.1-.65-.34a14.09,14.09,0,0,1,4.58-.12C41.94,75.17,42.25,75,42.6,75Z"/><path class="cls-1" d="M72.8,65.3a4.61,4.61,0,0,0-1.57,1c-.75.62-1.64.57-2.42.93a2.49,2.49,0,0,1,2.09-1.3,1.59,1.59,0,0,0,.9-.48C72.08,65.19,72.39,64.81,72.8,65.3Z"/><path class="cls-1" d="M66,89.17a2.79,2.79,0,0,1,2.75-.86C68,89.07,66.93,89,66,89.17Z"/><path class="cls-1" d="M40.28,52.15c.13.82-.13,1.28-1,1.11A1.27,1.27,0,0,1,40.28,52.15Z"/><path class="cls-1" d="M43.77,52.29c-1.49.08-1.62.06-1.91-.25C42.51,52,43.19,51.75,43.77,52.29Z"/><path class="cls-1" d="M53.3,52.51c-.46.31-.95.13-1.44.12A1.16,1.16,0,0,1,53.3,52.51Z"/><path class="cls-1" d="M47.23,52.57a1.84,1.84,0,0,1-1.47,0A1.69,1.69,0,0,1,47.23,52.57Z"/><path class="cls-1" d="M64.23,89.6a1.08,1.08,0,0,1,1.32-.39A1.71,1.71,0,0,1,64.23,89.6Z"/><path class="cls-1" d="M56.07,52.38c-.42.49-.89.35-1.36.13A2.62,2.62,0,0,1,56.07,52.38Z"/><path class="cls-1" d="M49.6,52.52a1,1,0,0,1-1.1,0C48.85,52.15,49.22,52.24,49.6,52.52Z"/><path class="cls-1" d="M38.73,53.86c.28.2.17.49.18.74C38.54,54.43,38.57,54.16,38.73,53.86Z"/><path class="cls-1" d="M62.87,89.61c.26-.25.45-.24.55.14A.37.37,0,0,1,62.87,89.61Z"/><path class="cls-1" d="M68,67.92c.08.36,0,.52-.42.46A.52.52,0,0,1,68,67.92Z"/><path class="cls-1" d="M41.66,52c0,.12-.1.24-.25.19s-.09-.14-.14-.21A.35.35,0,0,1,41.66,52Z"/><path class="cls-1" d="M67.08,87.13c.19,0,.64-.16.69.17s-.42.34-.7.44a2.06,2.06,0,0,1-1.58,0,.34.34,0,0,1,0-.26A2.82,2.82,0,0,1,67.08,87.13Z"/><g id="Fxab8Q.tif"><path class="cls-3" d="M0,58.11V53.2a25.06,25.06,0,0,1,2.38-7A33.79,33.79,0,0,1,15.23,32.88c.56-.33,1-.63,1-1.41a19.94,19.94,0,0,1,3.19-10.95C24,12.91,30.7,8,38.93,5.1A51.85,51.85,0,0,1,60.26,2.37a51.13,51.13,0,0,1,8.41,1.34A2.77,2.77,0,0,1,71,6.2,6.41,6.41,0,0,1,70.57,9c-.85,2.87-3.25,4.31-5.46,5.91a2.06,2.06,0,0,1-1.42.22A28.31,28.31,0,0,0,48.78,17.5a11.75,11.75,0,0,0-4.32,3.15c-.18.22-.53.43-.37.74s.53.16.8.14c5.2-.55,10.39-1.17,15.54-2.08A11.24,11.24,0,0,1,63.8,19a1.39,1.39,0,0,1,1.39,1.14c.49,2.25-1.82,5.64-4.09,6-4.89.87-9.81,1.55-14.74,2.14-.53.06-1.3-.2-1.52.36s.53,1,.84,1.44a2,2,0,0,0,2.41.91c2.36-.52,4.76-.89,7.14-1.3,1.51-.27,2.4.56,2.23,2.11a6.65,6.65,0,0,1-1.32,3.33c-.51.65-.32.82.42,1a39.2,39.2,0,0,0,11,.25c1.89-.18,3.76-.45,5.64-.66,1.31-.14,2,.36,2.22,1.51a5.23,5.23,0,0,1-4.06,5.62,63.53,63.53,0,0,1-15.83.22,27.17,27.17,0,0,1-11.89-3.94A2.22,2.22,0,0,0,42,38.81c-1.84.29-3.68.57-5.53.81a1.69,1.69,0,0,1-2.13-1.7,5.84,5.84,0,0,1,2.48-5c.41-.32,1.2-.16,1.31-.68a4.19,4.19,0,0,0-.34-1.6,3.84,3.84,0,0,1-.16-.67.86.86,0,0,0-1-.87c-1,.07-2.09.17-3.13.17a1.34,1.34,0,0,1-1.53-1.41,5.58,5.58,0,0,1,4.93-5.75,1.44,1.44,0,0,0,1.49-1,17.62,17.62,0,0,1,6.17-7.82l.93-.72a1.17,1.17,0,0,0-.9,0,32.28,32.28,0,0,0-14.21,7A16.49,16.49,0,0,0,26.38,24,8.88,8.88,0,0,0,26,32.8a14.84,14.84,0,0,0,2.85,4,29.3,29.3,0,0,0,10.39,6.72A61.5,61.5,0,0,0,70.73,47c7.87-1.13,13.86-5.32,18.21-11.91a14.66,14.66,0,0,0,2.61-7.21c.34-5.56-2.22-9.91-6-13.61A16.56,16.56,0,0,0,74.82,9.72a2.36,2.36,0,0,1-2.44-2.85c0-.26.08-.52.13-.78C73.43,1.41,76.36-.68,81,.19A21.58,21.58,0,0,1,95.47,10.25a28.93,28.93,0,0,1,4.65,16.15c0,.54-.16,1.13.35,1.56a2.7,2.7,0,0,1,.82,1.84,61.41,61.41,0,0,1,.56,9c-.06,1.9.42,3.79.31,5.64a21.12,21.12,0,0,1-3.73,10.78,28,28,0,0,1-11.87,9.64,1.46,1.46,0,0,0-.92,2A5,5,0,0,1,86,68.33a21.28,21.28,0,0,1-1.52,7,24.71,24.71,0,0,1-7.2,9.54C70.66,90.15,63,92.27,54.8,93.07c-1.78.18-3.58.23-5.37.34h-1a9.52,9.52,0,0,0-1.06-.11,62.72,62.72,0,0,1-14.25-1.81,53.64,53.64,0,0,1-21-9.55,27.61,27.61,0,0,1-10-13.83,4.25,4.25,0,0,1,0-2.88,1.26,1.26,0,0,0-.1-1.12A20.7,20.7,0,0,1,0,58.11ZM61.94,69c-2.61-.26-5-.45-7.38-.82a17.88,17.88,0,0,0-4.36-.58,52.33,52.33,0,0,1-11.05-.24,26.77,26.77,0,0,1-11.78-3.94,2.22,2.22,0,0,0-1.68-.29q-2.72.42-5.43.8c-1.34.18-2.24-.49-2.22-1.81a6,6,0,0,1,2.41-4.82c.44-.35,1.32-.14,1.39-.82a4.94,4.94,0,0,0-.4-1.7,2.73,2.73,0,0,1-.1-.48c-.06-.66-.44-.89-1.07-.85-1,.07-2,.16-3,.17s-1.66-.5-1.6-1.62a6.26,6.26,0,0,1,2.95-5.15c.57-.37.76-.65.5-1.31a7.75,7.75,0,0,1-.81-4.48c-.18,0-.29,0-.37,0C14.75,43,11.86,45.26,10,48.54a8.55,8.55,0,0,0-1.14,5.84A12.35,12.35,0,0,0,12.47,61a29.15,29.15,0,0,0,10.61,6.88,62.19,62.19,0,0,0,31.3,3.47A24,24,0,0,0,61.94,69ZM37.41,54.45c.6.31,1.2.63,1.8.92a57.69,57.69,0,0,0,19.52,5c1.89.18,1.9.14,2.1-1.8a2.6,2.6,0,0,1,.05-.39c.2-.87-.1-1.12-1-1.09a75.72,75.72,0,0,1-14.81-1C42.49,55.65,40,55.05,37.41,54.45ZM21.14,78.77l1,.53a56.51,56.51,0,0,0,20.51,5.41c1.74.16,1.74.1,1.9-1.69a4.13,4.13,0,0,1,.07-.49c.19-.84-.05-1.15-1-1.11A75.23,75.23,0,0,1,30,80.59C27,80.15,24.07,79.51,21.14,78.77Zm74.8-37.58c-.79,1-1.55,2-2.35,3a2.46,2.46,0,0,0-.6,1.41c-.2,2.4-.34,4.81-.33,7.22a2.55,2.55,0,0,0,0,.39c0,.36.26.5.52.21a8.57,8.57,0,0,0,2.65-4.68,55.41,55.41,0,0,0,.28-6.44A1.4,1.4,0,0,0,95.94,41.19ZM79.82,69.8V68.23c0-.62-.23-.89-.91-.76a2.76,2.76,0,0,0-2.16,2.24,62.29,62.29,0,0,0-.36,7.23c0,.31-.15.75.2.88s.53-.3.75-.52C79.39,75.2,79.87,72.59,79.82,69.8ZM87,53.6h0c0-1,.11-2,.16-3,0-.19.12-.41-.06-.55s-.43,0-.62.14l-1.86,1.08c-.33.19-.62.41-.58.83.15,1.89.31,3.77.49,5.66,0,.25.06.52.4.59A2.07,2.07,0,0,0,87,56.64C87,55.62,87,54.61,87,53.6ZM70.75,78h0c0-1,.11-2.09.16-3.13,0-.19.11-.42-.06-.56s-.43,0-.62.14c-.62.36-1.24.73-1.86,1.08-.33.19-.62.41-.58.83q.22,2.84.48,5.66c0,.25.07.53.41.6A2.08,2.08,0,0,0,70.75,81C70.76,80,70.75,79,70.75,78Zm7.89-19.56c-.07-.65-.17-1.3-.2-2-.12-3,0-2.53-2.81-1.7a.76.76,0,0,0-.62.78,33.43,33.43,0,0,1-.37,4c-.07.59.2.86.79.81l1.74-.21C78.67,60,78.67,60,78.64,58.46ZM62.32,82.57c-.07-.93-.14-2.1-.26-3.27,0-.39,0-.87-.73-.77-2,.27-2.5.73-2.65,2.72,0,.33-.11.65-.13,1-.17,2.68-.88,2.69,2.31,2.29C62.39,84.32,62.39,84.32,62.32,82.57Zm7.05-24.94c0-1.36,0-1.4-1.11-1.26-1.78.22-1.78.22-1.75,2.14,0,.49,0,1,0,1.47,0,.89.65.83,1.24.81s1.38.22,1.42-.83C69.25,59.18,69.32,58.4,69.37,57.63ZM50.23,83h0v.49c0,1.62.4,1.9,2,1.61.37-.07.61-.23.64-.61.06-1.11.12-2.21.17-3.31a.5.5,0,0,0-.5-.59c-1.71-.18-2.37.41-2.35,2.12Z"/></g></g></g></svg>