<svg xmlns="http://www.w3.org/2000/svg" viewBox="0 0 101.14 141.13"><defs><style>.cls-1{fill:#fec91e;}.cls-2{fill:#fe9d1f;}.cls-3{fill:#231f20;}</style></defs><title>4Muntjes</title><g id="Laag_2" data-name="Laag 2"><g id="Tekstwolkjes"><path class="cls-1" d="M40.25,42.26c-1.84-.29-3.19-1.64-5-1.76-.09,0-.21-.11-.27-.08-1.21.65-1.76-.29-2.42-1a1,1,0,0,0-.86-.37,5.69,5.69,0,0,1-3.29-.86c-.53-.27-1-.74-1.7-.4-.26.13-.37-.1-.54-.26a2.5,2.5,0,0,0-2.11-.91c-1,.08-1.57-.76-2.15-1.33a6.21,6.21,0,0,1-1.69-3A5.29,5.29,0,0,1,20.85,29c.2-.44.32-.9.49-1.35s0-.72-.57-.71A1.88,1.88,0,0,1,19,25.69c-.32-.69.23-1.15.55-1.61,1-1.38,2.43-2.37,3.07-4,.56-1.41,1.52-2.59,2.17-3.93.25-.52.81-.63,1.12-1s.61-.64.54-1.18.29-.76.75-.84.69-.1.85-.39A12.66,12.66,0,0,1,30.7,10c1.87-1.84,3.36-4,5.05-5.95.41-.48.49-1.15,1.39-1,.37.07.59-.46.74-.81C38.5.88,39.76.4,41.14.05c1-.25,1.37.45,1.61,1.19.14.44.16,1,.72,1a1.72,1.72,0,0,0,1.63-.95c.15-.4.18-.76.69-.76a1.12,1.12,0,0,1,1,.78,3,3,0,0,0,3.24,2.15c.57,0,.85,0,1,.7a1.23,1.23,0,0,0,1.47,1,.87.87,0,0,1,1,.47c.3.74.76.67,1.32.4.76-.37,1.24-.32,1.23.71,0,.76.61,1,1.2,1s1.3,0,1.94,0,1.06,0,1.38.52a.38.38,0,0,0,.4.22,19.4,19.4,0,0,0,6.13-1.84s.08,0,.08,0C67.61,5.21,69,5.47,69.85,5c.37-.2.71-.45,1.07-.66s.71-.32.87,0C72.1,5,73,5,73.26,5.72c.16.33.5.18.78.06a2.64,2.64,0,0,1,2-.24.87.87,0,0,0,.75-.1c.8-.5,1,0,1.16.65a7.72,7.72,0,0,1,.19,1c0,.65.29.89.94,1a1.71,1.71,0,0,1,1.76,1.64c0,.75.46.73,1,.64s1-.32,1.5-.39a2.19,2.19,0,0,1,2.47,1.3,2.2,2.2,0,0,0,3,1.07,1.32,1.32,0,0,1,2,.29,1.81,1.81,0,0,0,2.38.15c.4-.22,1-.86,1.16-.62.48.55,1.18,1.09,1.07,2-.15,1.21,0,2.43-.21,3.63a3.31,3.31,0,0,0,0,1.82.87.87,0,0,1,0,.65c-.49,1.35-.77,2.76-1.16,4.14a8.27,8.27,0,0,1-.8,2,16.78,16.78,0,0,0-1.12,2.67A2.56,2.56,0,0,1,91,30.55a3.07,3.07,0,0,0-1,1.27c-.72,1.47-2.13,2.49-2.48,4.25a3.87,3.87,0,0,1-1.88,2.12A3.27,3.27,0,0,0,84,40.05,2.15,2.15,0,0,1,83,41.36,8.49,8.49,0,0,0,80.86,43a25.77,25.77,0,0,1-4.79,4.3c-.46.34-1.06.23-1.51.61-.16.13-.4-.12-.55-.3a.52.52,0,0,1,0-.71c.31-.37.67-.7,1-1.07s.33-.6-.26-.59H73a3.18,3.18,0,0,1-2.34-.6,2,2,0,0,0-2.11-.17c-.5.27-.83.26-1.07-.33s-.35-.63-.75,0-1.5,1-2.22,1.52c-1.14.88-2.64.9-3.9,1.53-1,.48-1.51.08-1.86-1-.15-.47-.4-.58-.87-.49-1.51.29-3,.67-4.55-.09a1.26,1.26,0,0,0-1.13.07,2.55,2.55,0,0,1-2.56,0A5.81,5.81,0,0,0,47,45.46a9.36,9.36,0,0,1-3.63-.84A5.37,5.37,0,0,0,40.52,44a.68.68,0,0,1-.46-.08c-.41-.24-1-.41-.94-1S39.84,42.7,40.25,42.26Z"/><path class="cls-1" d="M79.35,65.39c1.16-.33.74-1.53,1.2-2.25.18-.29.27-.54.66-.55.58,0,1.2.15,1.52-.62.11-.27.46-.13.62.14.31.52,1.08.74.91,1.57-.05.26.23.25.41.13l.8-.55A1.74,1.74,0,0,1,88,64a3.37,3.37,0,0,0,2.57,1.22c.43-.06.64,0,.8.41s.69.45,1.09.39a.93.93,0,0,1,1.15.76c.07.25.09.59.4.58a9.78,9.78,0,0,1,3,.52.94.94,0,0,0,.71-.23c.37-.34.77-.76,1.21-.3a2,2,0,0,1,.62,1.7c-.28,2.35-1.44,4.45-1.82,6.75a18.34,18.34,0,0,1-2,5.76,4.26,4.26,0,0,0-.39,1.66c0,.47-.1,1.27-1.12,1.33-.4,0-.79,1-1.11,1.57a1.46,1.46,0,0,1-.8.72,2.93,2.93,0,0,0-1.61,2c-.21.21-.46.44-.76.3-.63-.28-.69.15-1,.56-.44.69-.41,1.57-1,2.2-.15-.11-.28-.16-.3.1l-.07.24c-.22-.26-.46-.2-.7,0-2.9,1.88-6.15,3.15-9,5.07-.43.29-.75.72-1.15,1s-.87,1-1.65.69a.42.42,0,0,0-.37.09c-.7.72-1.65.45-2.48.67a3.59,3.59,0,0,0-1.46.62,2,2,0,0,1-1.91.32,4.06,4.06,0,0,0-2.67,0,11.82,11.82,0,0,1-4.5.16,28.57,28.57,0,0,0-5.14-.14c-1.92.08-3.84-.07-5.76.07-.85.06-1.73-.45-2.65-.43-2.41,0-4.5-1.15-6.75-1.73-.67-.17-1.44,0-2.06-.41,0-.24.17-.3.3-.24.37.19.82.18.86-.22s-.47-.32-.77-.35c-.81-.06-1.3-.75-2.13-.91a17.5,17.5,0,0,1-5.1-1.64c-1.61-.88-3.57-1.34-4.61-3.17-.4-.69,0-1,.38-.89.82.19,1.35-.41,2-.6s.87-.21,1.29.17a1.23,1.23,0,0,0,.8.31c.41,0,1.05.35,1.19-.19s-.34-.84-.81-1.09c-.68-.35-1.39-.7-1.62-1.55,0-.09-.11-.16-.14-.25a5.78,5.78,0,0,1,1.62-2.73,3.33,3.33,0,0,1,2.41-.19c1,.22,2.1-.31,3.11,0,1.64.53,3.38,0,5,.7,1.17.5,2.56.09,3.82,0a7.14,7.14,0,0,1,1.69.11c2.4.31,4.76-.38,7.15-.22,2,.13,3.86-.62,5.78-.8,1.57-.15,2.57-1,3.73-1.8a.63.63,0,0,0,.23-.51,3.46,3.46,0,0,0,2-.14,12.41,12.41,0,0,0,5.69-2.28,19.44,19.44,0,0,0,2.84-2.26,32.29,32.29,0,0,1,2.82-2.91,7.5,7.5,0,0,0,1.82-2c.41-.9,1.51-1.3,1.53-2.4,0,0,.08-.12.14-.13,1-.21.8-1,.82-1.69a2.56,2.56,0,0,1,.24-1.4c.34-.52-.25-.86-.48-1.22s-.53-.06-.74.16a.61.61,0,0,1-.86.14,2,2,0,0,0-1.22-.24C79.81,65.88,79.47,65.83,79.35,65.39Z"/><path class="cls-1" d="M48.05,126.93c.25-.25.18-.44-.14-.51-1.22-.24-2.38-.87-3.68-.53a.48.48,0,0,1-.37,0c-1.74-1.24-3.9-1-5.83-1.66a23.2,23.2,0,0,0-5.91-1.36,8,8,0,0,1-2.76-.62,13,13,0,0,0-4.64-.85,3,3,0,0,1-1.75-.52,5.56,5.56,0,0,0-1.48-.65c-.7-.26-1.46-.34-2-1.08s-1.4-.25-2.07-.59a27,27,0,0,1-4-2,6.46,6.46,0,0,0-1.79-.67,25.7,25.7,0,0,1-5.06-2.32c-2.3-1.41-3.22-3.52-3.7-6-.22-1.17,0-2.39-.46-3.53-.23-.52.23-1,.23-1.6,0-1.08-.42-2.14-.13-3.21a.72.72,0,0,0,0-.48c-.92-1.22.26-2.4.08-3.61-.05-.37.64-.27.75-.76s.59-.24.93-.13c1,.29,1.36.1,1.18-.9-.28-1.6.47-3,.83-4.39a.29.29,0,0,1,.45-.21c.55.36.89.06,1.24-.31s.71-.54,1.1-.16.94.51.27,1.1c-.25.22.06.46.3.58s.49.06.5-.3a.64.64,0,0,1,.57-.68c.43-.07.46.35.64.61.29.43.41,1.23,1.24.51.18-.15.21.58.53.5,1.31-.32,1.47.78,1.91,1.5s1.28.45,1.71.21c1-.54,1.36,0,1.64.75.2.54.54.54,1,.45a3.16,3.16,0,0,1,2.57.31c.54.35,1.4.87,1.75-.36a.23.23,0,0,1,.38-.14c.34.24.75.47.72,1s.12.78.11,1.13c-.07,2.37.54,4.7.32,7.08a26.52,26.52,0,0,0,.27,4.25c0,.33.08.71.41.83.9.32,1.59,1,2.7,1a6.77,6.77,0,0,1,3.78,1,1.6,1.6,0,0,0,1,.27,3,3,0,0,1,2,.5,5,5,0,0,0,2.8.63,29.43,29.43,0,0,1,5,.56,5.43,5.43,0,0,1,2.64.68,1.27,1.27,0,0,0,1.11.14,1.84,1.84,0,0,1,1.38,0c.58.1,1.22.23.88,1.11-.07.18,0,.51.18.49.75-.09,1,.69,1.53.87.38.12.68.44,1.16.11a.74.74,0,0,1,1,.29c.25.43.76.49,1,.78.86.88,1.69-.14,2.52.06.43.11.92-.06,1.2.45a.29.29,0,0,0,.49,0c.33-.33.52-.32.66.16.06.21.18.31.36,0,.33-.57.76-.17,1.07,0a1.62,1.62,0,0,1,.23,2,.86.86,0,0,0-.12,1c.54.93.3,1.28-.73,1.42a2.49,2.49,0,0,0-1.6,1.43c-.68,1.2-.56,1.28-1.82.67.24,1.09.63,2.16-.15,3.14-.24.39-.63.07-1,.17a8.49,8.49,0,0,1-3.31.39A13.07,13.07,0,0,0,48.05,126.93Z"/><path class="cls-1" d="M49.64,60.63c-.24.8.08,1.25.89,1.33,1.25.13,2.38.73,3.61,1,.57.11,1,.84,1.61,1a10.67,10.67,0,0,0,3.52-.09,2.67,2.67,0,0,1,2.54,2c0,.07,0,.16,0,.19-.88.83-.78,1.91-.83,3a2,2,0,0,0,0,.55c.18.63-.16.84-.72,1a7.94,7.94,0,0,0-2.54,1.13c-.48.31-.4.59.08.82-1.14.82-2.53.53-3.79.77s-2.69-.2-3.91.14c-1.53.43-3,0-4.54.29-.35.05-.69-.3-1.1,0a2,2,0,0,1-1.95.14c-1.36-.73-2.62.15-3.94,0a17.77,17.77,0,0,1-2.8-.31c-.16-.55-.6-.52-1-.48-1.36.13-2.41-.69-3.58-1.14-.86-.32-1.59-.93-2.62-.68a1.36,1.36,0,0,1-1.3-.54,6.56,6.56,0,0,0-1.95-1.33A1.44,1.44,0,0,0,23.82,69a.83.83,0,0,1-1.08-.42A1.43,1.43,0,0,0,21,67.8a.87.87,0,0,1-.81-.2c-1-1.15-2.48-1.36-3.74-2C13.7,64.28,11,62.9,8.31,61.35a13.5,13.5,0,0,1-5.72-6c-.45-1-.21-2.08-.56-3.09-.12-.34.05-.78-.4-1a.32.32,0,0,1-.08-.44C2.47,49.64,2.1,48.3,2,47a2.77,2.77,0,0,1,.59-1.8c.69-.93.35-2.67,2.16-2.7A21.92,21.92,0,0,0,6.21,40c.34-.81,1.21-1.41,1-2.44,0-.12.17-.23.29-.13.66.57,1-.1,1.37-.39,1-.77,1.33-.66,1.69.56.06.22,0,.66.44.61a.53.53,0,0,0,.48-.62c0-.53.47-.59.77-.73s.32.28.41.51.34.26.64.2c.7-.14,1,.17.67.87s0,.67.56.5,1.25-.08,1.42.72c.1.5.43.59.84.6s1,0,1.55,0a1.26,1.26,0,0,1,1.22.57,2,2,0,0,0,1.72.72c1.15,0,1.15,0,1.3,1.16.64-.62,1.62-.32,2.23-1,.2-.22.45-.1.64.16a2.57,2.57,0,0,1,.41,2.1,9.18,9.18,0,0,0-.47,1.9c.14,1.94-1,3.53-1.19,5.34a5.44,5.44,0,0,0,2.26,4.34A9,9,0,0,1,28.27,57c.58.59,1.06,1.24,2,1a.49.49,0,0,1,.49.26,1.56,1.56,0,0,0,1.59.64c.85,0,1.57.63,2.52.53,1.27-.14,2.53.26,3.85.1a28.21,28.21,0,0,1,4.2.11h1.74c.26,0,.55,0,.61.34.14.83.75.67,1.28.56A6.22,6.22,0,0,1,49.64,60.63Z"/><path class="cls-2" d="M87.65,92.27l.07-.24.3-.1c.54-.63.51-1.51,1-2.2.27-.41.33-.84,1-.56.3.14.55-.09.76-.3.75.56,1.74.49,2.53.93a3.73,3.73,0,0,0,1.43.58c.26.08.3.3.31.52,0,.45.3.26.52.22l1.36.22a.31.31,0,0,1,.27.31c-.06.6.47.58.78.61.63,0,1.06.18.79,1,.46-.13.54-.37.5-.69.34-.09.68-.16,1-.27.55-.18,1.09.17.92.7a7.54,7.54,0,0,1-.51,2,7.66,7.66,0,0,0-1.17,2.16c-.12.76-1.19,1.18-.78,2.13a.16.16,0,0,1-.06.08c-1.41.1-1.45,1.58-2.27,2.29s-1.47,1.88-2.42,2.47c-1.28.79-2.32,1.94-3.84,2.38a7.07,7.07,0,0,0-2.41,1.23c-.75.59-1.77.55-2.57,1s-1.74.41-2.43,1c-.4.37-1,.18-1.4.18-1.38,0-2.58.81-4,.69-1-.1-2,.41-3,.44-2.83.09-5.66.24-8.49.25-2.34,0-4.67-.09-7-.07-1.86,0-3.75-.34-5.61-.16s-4-.6-6-.25a1,1,0,0,1-.56-.11,7.31,7.31,0,0,0-3.11-1.07c-.1,0-.23-.2-.3-.34a2,2,0,0,0-1.58-.93,19.62,19.62,0,0,1-3.79-1.18A14,14,0,0,1,35.74,106c-.42-.28-.62-.65.12-1a4.37,4.37,0,0,1,2.36-.32c.26,0,.66.14.73-.27s-.3-.4-.57-.49c-1-.31-1.13-.76-.68-1.75.2-.45.1-1.15,1-1,.44.06.77-.32,1.37-.16.79.21,1.72-.2,2.64-.09a37.93,37.93,0,0,0,7.29.56,14,14,0,0,1,3.66-.07,30.88,30.88,0,0,0,5.34.26,44.36,44.36,0,0,0,7.73-.19c2.54-.4,5.09-.7,7.62-1.11a16.66,16.66,0,0,0,3.23-1.3c1.16-.45,2.31-.94,3.46-1.41.85-.16,1.73-.25,2.25-1.08a.07.07,0,0,1,.1-.06,1.13,1.13,0,0,0,1.07-.68.16.16,0,0,1,.16-.09c.27,0,.41-.1.41-.38h0c.53.06.81-.17.79-.72l.47-.44c.26-.06.38-.16.1-.37C86.19,92.87,87.11,92.72,87.65,92.27Z"/><path class="cls-2" d="M49.64,60.63a6.22,6.22,0,0,0-3.06-.1c-.53.11-1.14.27-1.28-.56-.06-.35-.35-.33-.61-.34H43c-.13-.39,0-.64.42-.63h1.08c-.58-.54-1.23-.26-1.79-.4a3.81,3.81,0,0,1-1.43-.5c-.89-.72-2-.65-3-1s-1.57-1.17-2.4-1.7c-.35-.22-.08-.62.28-.83a2.65,2.65,0,0,1,2-.38c.8.47,1.28-.51,2-.41-.69,0-1.31-.54-2-.23l-.43,0V52.25l0,0c.83.05,1-.49,1.14-1.17h0c.23,0,.48.08.58-.23a.58.58,0,0,1,.63-.08,1.28,1.28,0,0,0,1.31-.05l2.47.14a.38.38,0,0,0,.43-.09l.66,0c.82.6,1.63.24,2.44,0l.45.09c.22.32.47.28.74.07h.84c.35.16.72.37.92-.19.91.35,1.83-.07,2.75,0,.23.66.65.59,1.14.31h.43c.41.17.86.47,1.12-.21l.21-.06c.26.34.53.35.79,0l.21,0a1.49,1.49,0,0,0,2.1,0l.21,0a2.26,2.26,0,0,0,2.13,0l1.78.06a2.12,2.12,0,0,0,1.69.08c1.11-.22,2.31.16,3.34-.54a1.11,1.11,0,0,1,.82-.09c.22.21.4.2.54-.09,1.37-.4,2.75-.72,4.14-1a17.46,17.46,0,0,0,4.09-1.77A19.22,19.22,0,0,1,81,46.06a1,1,0,0,0,.59-.3c.61-.85,1.71-1,2.44-1.68a7.09,7.09,0,0,0,1-1.36,5.5,5.5,0,0,1,1.51-1.81,1.3,1.3,0,0,0,.51-.56A4.93,4.93,0,0,1,89.84,37c.16.07.19.3.19.52,0,.6-.09,1.26.79.53.26-.21.37.05.56.14.47.23.85.68,1.54.44.51-.18.56.36.57.77s0,.77.41.5a1.36,1.36,0,0,1,2.09.4c.14.17.55.14.84.14.58,0,1.2-.33,1.7.27a.41.41,0,0,0,.36,0c1-.63.84.16.84.66a9.52,9.52,0,0,1-2.26,5.83,37.75,37.75,0,0,1-7.69,7.87,6.7,6.7,0,0,1-1.77,1c-2.12.75-4.09,1.82-6.12,2.74a7.71,7.71,0,0,1-2.45.45c-1.46.17-2.85.63-4.31.79s-3.19,0-4.72.55c-.46.17-1.09-.17-1.61-.1-3.23.41-6.47.12-9.7.23-1.52.06-3.09-.21-4.61-.23A23.15,23.15,0,0,0,49.64,60.63Z"/><path class="cls-2" d="M35.75,73.42a17.77,17.77,0,0,0,2.8.31c1.32.18,2.58-.7,3.94,0a2,2,0,0,0,1.95-.14c.41-.29.75.06,1.1,0,1.5-.24,3,.14,4.54-.29,1.22-.34,2.65.1,3.91-.14s2.65,0,3.79-.77c.26,0,.54-.18.76.1.75.43,1.48.07,2.21-.06a.37.37,0,0,0,.3-.43c2-.09,3.52-1.44,5.26-2.19a6.47,6.47,0,0,0,2.09-2,16.66,16.66,0,0,0,2.4-3.28A4.18,4.18,0,0,1,73,62.8c.4-.15.75-.08.74.44,0,.78.32.44.6.19s.29-.5.6-.33,0,.38,0,.57a.28.28,0,0,0,.21.29A9.85,9.85,0,0,1,77.68,65a.81.81,0,0,0,.72-.15c.22.35.85,0,.95.52s.46.5.84.48a2,2,0,0,1,1.22.24.61.61,0,0,0,.86-.14c.21-.22.55-.46.74-.16s.82.7.48,1.22a2.56,2.56,0,0,0-.24,1.4c0,.69.19,1.48-.82,1.69-.06,0-.14.08-.14.13,0,1.1-1.12,1.5-1.53,2.4a7.5,7.5,0,0,1-1.82,2,32.29,32.29,0,0,0-2.82,2.91,19.44,19.44,0,0,1-2.84,2.26,12.41,12.41,0,0,1-5.69,2.28,3.46,3.46,0,0,1-2,.14,15.93,15.93,0,0,1-3.57.67c-1.59.11-3.19.17-4.78.34s-3.38-.28-5.05.25a6.82,6.82,0,0,1-2.11-.07c-1.16,0-2.31,0-3.47.09-1.67.08-3.33-.07-5-.14s-3.65.09-5.46,0a34.27,34.27,0,0,1-6.79-.47c.07-1.08-.74-1.58-1.76-1.1-.41-.62-1.16-.41-1.72-.66a3.79,3.79,0,0,1-.61-.23c-.13-.34-.32-.35-.55-.1-1.08-.36-2.12-.83-3.19-1.22a4.9,4.9,0,0,1-2-.89c-.25-.25-.67-.45-.49-.84a1.45,1.45,0,0,1,1-.8A6.11,6.11,0,0,1,21,77c.23,0,.55.2.66-.17a.61.61,0,0,0-.27-.59c-.6-.54-1.05-1,.11-1.5.45-.18.49-.88,1-1,.92-.28,1.84-.72,2.84-.27a2.3,2.3,0,0,0,1.24.13c2.77-.35,5.53.12,8.3.11C35.2,73.7,35.43,73.46,35.75,73.42Z"/><path class="cls-2" d="M48.05,126.93a13.07,13.07,0,0,1,3.9,0,8.49,8.49,0,0,0,3.31-.39c.33-.1.72.22,1-.17a14,14,0,0,0,6-1.66c1.29-.58,2.48-1.39,3.87-1.86,1-.35,2.49-.85,3-2,.61-1.49,2.16-2.23,2.58-3.85a2.63,2.63,0,0,1,1.93-1.54c0,.45,0,.91,0,1.36,0,.28.15.48.42.23.85-.79,1.38-.25,2,.38a1.39,1.39,0,0,1,.55,1c0,.46.56.44.8.48.61.09.65-.54.84-1.06.43.57.88.8,1.44.34.54.58,1.6.31,2,1.19.4-.18.82-.35,1.22-.55.6-.29.87-.07.83.56a8.88,8.88,0,0,1-1.7,5.09c-1,1.34-1.86,2.82-3,4.08a15.17,15.17,0,0,1-5.3,4c-1.53.61-2.88,1.56-4.42,2.16a20.81,20.81,0,0,1-3,.83,40.86,40.86,0,0,1-4.37.79c-1.46.15-2.94.1-4.4.24-2,.19-4.08-.22-6.12.17a13.38,13.38,0,0,1-3-.07,15,15,0,0,0-3.48.09,15.93,15.93,0,0,1-1.81-.1c-3.54.26-7.09.13-10.64.14-.54,0-1.34.2-1.52-.76,0-.25-.36-.22-.59-.17a4,4,0,0,1-.74.19c-.23,0-.6.14-.64-.22s.31-.34.56-.37a.5.5,0,0,0,.38-.25c-.81-.11-1.62-.24-2.44-.33a2.18,2.18,0,0,1-1.27-.56c-.73-.65-1.79-.55-2.68-.89a10,10,0,0,1-2.63-1.75c-.26-.21-.14-.39.15-.58.88-.58,1.86-.29,2.8-.37,0-.14,0-.22,0-.24-1.46-1-1.46-1.05-.27-2.34.31-.33.64-.63.91-1s.31-.34.56-.28c1.62.4,3.24-.08,4.87,0a20.84,20.84,0,0,0,2.38.23,29.21,29.21,0,0,1,4-.22c2,.16,3.88-.19,5.82-.2.65,0,1.22.41,1.89.29A12.25,12.25,0,0,1,48.05,126.93Z"/><path class="cls-1" d="M79.56,118.17c-.56.46-1,.23-1.44-.34-.19.52-.23,1.15-.84,1.06-.24,0-.8,0-.8-.48a1.39,1.39,0,0,0-.55-1c-.6-.63-1.13-1.17-2-.38-.27.25-.41,0-.42-.23,0-.45,0-.91,0-1.36.76-.36,1,.52,1.55.65.15,0,.27.42.43.32,1.13-.72,1.24.53,1.72.92a1.36,1.36,0,0,0,1.42.19C79.24,117.35,79.6,117.46,79.56,118.17Zm-2.87-.85s-.1-.09-.15-.09-.1,0-.15.07.1.09.15.09S76.64,117.34,76.69,117.32Z"/><path class="cls-1" d="M94.65,90.38a3.73,3.73,0,0,1-1.43-.58c0-.31-.23-.75.48-.58s1.11-.76,1.84-1a1.16,1.16,0,0,1-.45,1.14A1.23,1.23,0,0,0,94.65,90.38Z"/><path class="cls-1" d="M68.26,50.43c-1,.7-2.23.32-3.34.54a2.12,2.12,0,0,1-1.69-.08A50,50,0,0,1,68.26,50.43Z"/><path class="cls-1" d="M27.6,81.81c1-.48,1.83,0,1.76,1.1-.57-.9-1.67-.27-2.39-.84Z"/><path class="cls-1" d="M38.15,53.56c.69-.31,1.31.19,2,.23-.73-.1-1.21.88-2,.41C38.14,54,38.15,53.77,38.15,53.56Z"/><path class="cls-1" d="M99.18,92.58c0,.32,0,.56-.5.69.27-.83-.16-1-.79-1-.31,0-.84,0-.78-.61a1.88,1.88,0,0,0,1.26.33C98.8,92,99.13,92.09,99.18,92.58Z"/><path class="cls-1" d="M67.49,45.68c0,.45-.38.55-.76.55s-.58,0-.49-.37a.69.69,0,0,1,.75-.6C67.27,45.27,67.51,45.32,67.49,45.68Z"/><path class="cls-1" d="M99.43,97.21a7.66,7.66,0,0,1,1.17-2.16A2.16,2.16,0,0,1,99.43,97.21Z"/><path class="cls-1" d="M61.05,72a.37.37,0,0,1-.3.43c-.73.13-1.46.49-2.21.06a1.06,1.06,0,0,1,1-.25A2.28,2.28,0,0,0,61.05,72Z"/><path class="cls-1" d="M47.41,50.76c-.81.24-1.62.6-2.44,0Z"/><path class="cls-1" d="M83.25,96.62c-.52.83-1.4.92-2.25,1.08A5,5,0,0,1,83.25,96.62Z"/><path class="cls-1" d="M38.88,51.06c-.09.68-.31,1.22-1.14,1.17.22-.37.59-.69.23-1.21Z"/><path class="cls-1" d="M36.57,41.39c.44.09.56.47.68.83a.21.21,0,0,1-.26.28,1,1,0,0,1-.77-.75C36.15,41.52,36.36,41.43,36.57,41.39Z"/><path class="cls-1" d="M61.45,50.83a2.26,2.26,0,0,1-2.13,0A6.35,6.35,0,0,1,61.45,50.83Z"/><path class="cls-1" d="M59.11,50.85a1.49,1.49,0,0,1-2.1,0A4.15,4.15,0,0,0,59.11,50.85Z"/><path class="cls-1" d="M54.25,51.08c-.49.28-.91.35-1.14-.31C53.53,50.72,54,50.63,54.25,51.08Z"/><path class="cls-1" d="M96.84,91.34l-1.36-.22C96,90.5,96.43,91,96.84,91.34Z"/><path class="cls-1" d="M37.72,52.25v1.33C37.1,53.27,37.1,53.06,37.72,52.25Z"/><path class="cls-1" d="M41.41,50.69a1.28,1.28,0,0,1-1.31.05A1,1,0,0,1,41.41,50.69Z"/><path class="cls-1" d="M84.42,95.88a1.13,1.13,0,0,1-1.07.68C83.6,96.16,83.88,95.82,84.42,95.88Z"/><path class="cls-1" d="M55.8,50.88c-.26.68-.71.38-1.12.21C55,50.72,55.44,51,55.8,50.88Z"/><path class="cls-1" d="M50.36,50.73c-.2.56-.57.35-.92.19A1,1,0,0,1,50.36,50.73Z"/><path class="cls-1" d="M85.78,94.69c0,.55-.26.78-.79.72Z"/><path class="cls-1" d="M48.6,50.92c-.27.21-.52.25-.74-.07A.57.57,0,0,1,48.6,50.92Z"/><path class="cls-1" d="M56.8,50.82c-.26.35-.53.34-.79,0A.85.85,0,0,1,56.8,50.82Z"/><path class="cls-1" d="M78.4,64.86a.81.81,0,0,1-.72.15C77.9,64.85,78,64.27,78.4,64.86Z"/><path class="cls-1" d="M69.62,50.25c-.14.29-.32.3-.54.09A.43.43,0,0,1,69.62,50.25Z"/><path class="cls-1" d="M24.72,80.82c.23-.25.42-.24.55.1C25.07,81,24.87,81,24.72,80.82Z"/><path class="cls-1" d="M39.47,50.82c-.1.31-.35.24-.58.23C39,50.83,39.19,50.67,39.47,50.82Z"/><path class="cls-1" d="M44.31,50.74a.38.38,0,0,1-.43.09C44,50.61,44.11,50.47,44.31,50.74Z"/><path class="cls-1" d="M86.35,93.88c.28.21.16.31-.1.37A.3.3,0,0,1,86.35,93.88Z"/><path class="cls-1" d="M85,95.41c0,.28-.14.4-.41.38A.52.52,0,0,1,85,95.41Z"/><path class="cls-2" d="M76.69,117.32s-.1.07-.15.07-.1-.06-.15-.09.1-.07.15-.07S76.64,117.29,76.69,117.32Z"/><g id="_35nONE.tif" data-name="35nONE.tif"><path class="cls-3" d="M98.87,41.69v2.09c-.05.21-.09.43-.14.64a21.86,21.86,0,0,1-1.35,5.29,24.26,24.26,0,0,1-6,8.25.74.74,0,0,0-.15,1.19,28,28,0,0,1,5.67,17.76,1.2,1.2,0,0,0,.34,1A2.81,2.81,0,0,1,98,79.8a72.78,72.78,0,0,1,.53,11,3.51,3.51,0,0,0,.34,1.83v1.7A25.27,25.27,0,0,1,96,103.1a27.05,27.05,0,0,1-12.06,10.44c-1.18.56-1.33.88-1,2.14a3.48,3.48,0,0,1,.23,1.49,25.11,25.11,0,0,1-2.24,8.15,25.39,25.39,0,0,1-9.87,10.21c-6.12,3.56-12.84,5.06-19.81,5.48a64.52,64.52,0,0,1-19.08-1.68c-7.35-1.77-14.25-4.55-20.27-9.23a26.68,26.68,0,0,1-9.68-13.47,3.87,3.87,0,0,1,0-2.6A1.5,1.5,0,0,0,2,112.68,17.49,17.49,0,0,1,2,96.54,31.92,31.92,0,0,1,14.88,82.68c1-.57,1-.59,0-1.19a37.7,37.7,0,0,1-5.18-4,25.44,25.44,0,0,1-7.59-11.9,3.61,3.61,0,0,1,0-2.32A1.54,1.54,0,0,0,2,61.94a17.58,17.58,0,0,1-.14-16,31.76,31.76,0,0,1,12.93-14c.56-.33,1-.62,1-1.43a18.86,18.86,0,0,1,3.08-10.57C23.63,12,30.74,7.22,39.38,4.51A48.93,48.93,0,0,1,56.94,2.37a52.73,52.73,0,0,1,9.53,1.35,2.8,2.8,0,0,1,2.28,3.22,9.42,9.42,0,0,1-1,3.15c-1,2.07-3,3.1-4.68,4.43a1.88,1.88,0,0,1-1.37.27,27.06,27.06,0,0,0-14.57,2.33,11.28,11.28,0,0,0-4.09,3c-.17.21-.5.42-.33.72s.47.12.71.09c5.05-.56,10.09-1.14,15.09-2a9.45,9.45,0,0,1,3.35-.43,1.37,1.37,0,0,1,1.25,1.21c.4,2.21-1.83,5.38-4,5.77-4.63.82-9.28,1.46-13.94,2-.59.07-1.51-.27-1.71.41s.67,1.05,1.05,1.58a1.54,1.54,0,0,0,1.8.64c2.37-.49,4.77-.87,7.16-1.3a1.71,1.71,0,0,1,2.19,2.11,6.45,6.45,0,0,1-1.24,3.13c-.53.69-.32.82.43,1a42.18,42.18,0,0,0,12.34.06c1.29-.14,2.57-.36,3.85-.46a1.78,1.78,0,0,1,2,2.26,6.88,6.88,0,0,1-1.31,3.21,3.54,3.54,0,0,1-2.55,1.45,63.32,63.32,0,0,1-15.38.22,26.38,26.38,0,0,1-11.57-3.84,1.8,1.8,0,0,0-1.35-.3c-1.8.28-3.61.54-5.42.81a1.75,1.75,0,0,1-2.24-1.95c.09-1.75.67-3.54,2.22-4.27s1.46-1.66,1-2.9c0,0,0-.06,0-.09,0-.74-.43-1-1.12-.93-1,.08-2,.15-3,.18A1.23,1.23,0,0,1,31,27.4a5.39,5.39,0,0,1,4.59-5.86,1.59,1.59,0,0,0,1.63-1.13,14.81,14.81,0,0,1,3.06-4.86A27.8,27.8,0,0,1,44,12.27a1.7,1.7,0,0,0-.4-.06,29.68,29.68,0,0,0-16.71,9.38c-3.34,3.75-3.42,8.05-.51,12.13a17.78,17.78,0,0,0,2.75,3,35.13,35.13,0,0,0,13.21,7,66.25,66.25,0,0,0,12.19,2.16,51.84,51.84,0,0,0,14.61-.44A25,25,0,0,0,86.6,33.07a12.5,12.5,0,0,0,1.89-8.9C87.23,17.7,82.17,10.26,72.42,9.55c-1.71-.13-2.64-1.14-2.36-2.82.49-3,1.82-5.43,4.74-6.73h1.71a1.38,1.38,0,0,0,.27.08A20.44,20.44,0,0,1,91.43,8.67a27.49,27.49,0,0,1,5.43,17.08c0,.49-.1,1,.36,1.4A2.6,2.6,0,0,1,98,28.92a72.73,72.73,0,0,1,.55,11.23A2.36,2.36,0,0,0,98.87,41.69ZM30,88.06c.13.41.45.53.69.71A35.65,35.65,0,0,0,38.16,93a49.2,49.2,0,0,0,13.18,3.29,55.21,55.21,0,0,0,17.82-.11A24.59,24.59,0,0,0,87.29,82.52a11.94,11.94,0,0,0,1-8.66,19.43,19.43,0,0,0-4.72-8.42c-.11-.12-.19-.35-.34-.28-.37,9.5-5.41,15.85-13.49,20.4.68-.06,1.15-.14,1.62-.14A1.56,1.56,0,0,1,73,86.8C73.5,89,71.46,92,69.2,92.31A66,66,0,0,1,58,92.88a36,36,0,0,1-12.3-2.37,3.78,3.78,0,0,0-1.29-.24,62.37,62.37,0,0,1-11.14-1.46C32.17,88.55,31.11,88.31,30,88.06ZM17.7,90.61c-3.55,2.1-6.79,4.47-8.46,8.38a7.68,7.68,0,0,0-.6,4.16,11.72,11.72,0,0,0,3.59,6.73,32,32,0,0,0,12.64,7.56,59,59,0,0,0,14,2.73,50.64,50.64,0,0,0,15.73-.7A21.68,21.68,0,0,0,60,117.59c-2.6-.22-4.95-.44-7.29-.8a17.07,17.07,0,0,0-4-.54A50.07,50.07,0,0,1,38,116a25.84,25.84,0,0,1-11.39-3.79,2.16,2.16,0,0,0-1.62-.3q-2.67.42-5.34.78A1.65,1.65,0,0,1,17.57,111a5.75,5.75,0,0,1,2.37-4.72c.42-.32,1.22-.1,1.3-.73a4.5,4.5,0,0,0-.35-1.55,2.74,2.74,0,0,1-.13-.55c-.05-.7-.46-.9-1.1-.86-.94.07-1.88.16-2.83.17-1.13,0-1.65-.49-1.58-1.63A6,6,0,0,1,18,96.29a1.08,1.08,0,0,0,.5-1.59A7.77,7.77,0,0,1,17.7,90.61ZM59.82,66.83c-2.54-.26-4.85-.45-7.15-.81a15.53,15.53,0,0,0-3.82-.55,50.83,50.83,0,0,1-11-.23A25.79,25.79,0,0,1,26.6,61.47a1.92,1.92,0,0,0-1.43-.34c-1.8.28-3.61.54-5.42.81a1.74,1.74,0,0,1-2.22-1.88c.07-1.78.65-3.62,2.24-4.35s1.39-1.7,1-2.91a.29.29,0,0,1,0-.09c0-.75-.46-1-1.14-.91-.94.07-1.88.16-2.83.18-1.1,0-1.57-.46-1.53-1.57a5.94,5.94,0,0,1,2.89-5c.55-.35.66-.63.43-1.21a7.55,7.55,0,0,1-.77-4.37,1.78,1.78,0,0,0-.43.14A23.6,23.6,0,0,0,11,45.34c-2,2.51-3,5.29-2,8.48a13.78,13.78,0,0,0,4.37,6.31,34.13,34.13,0,0,0,12.09,6.69,61.93,61.93,0,0,0,13.36,2.53,50.58,50.58,0,0,0,15.53-.64A20.45,20.45,0,0,0,59.82,66.83Zm-39.31,60c.13.16.16.23.21.25.27.16.54.31.83.45a54.72,54.72,0,0,0,19.71,5.21c1.73.16,1.73.11,1.9-1.67,0-.22.05-.44.09-.66.12-.67-.16-.87-.84-.85A69,69,0,0,1,20.51,126.86Zm15.8-23.32.89.49a54.69,54.69,0,0,0,19.9,5.25c1.64.14,1.64.09,1.79-1.6a3.43,3.43,0,0,1,.07-.56c.16-.78-.07-1.08-.92-1a55.42,55.42,0,0,1-7.84-.2A70.06,70.06,0,0,1,36.31,103.54Zm.06-50.78.41.23a54.24,54.24,0,0,0,20.31,5.49c1.65.15,1.66.08,1.76-1.52a2.82,2.82,0,0,1,.08-.65c.23-.84-.1-1-.92-1a67.52,67.52,0,0,1-12-.62A69.82,69.82,0,0,1,36.37,52.76ZM20.6,76.22c.27.15.53.31.8.44A54.52,54.52,0,0,0,41.3,82c1.71.16,1.71.1,1.82-1.55,0-.09,0-.19,0-.28.14-1.29.14-1.3-1.22-1.27a77.67,77.67,0,0,1-13-.88A70.23,70.23,0,0,1,20.6,76.22Zm72.23,14.5c-.9,1.16-1.79,2.29-2.66,3.42a.82.82,0,0,0-.13.35,64.43,64.43,0,0,0-.37,7.73c0,.45.24.63.57.25A8.33,8.33,0,0,0,92.73,98,54,54,0,0,0,93,91.78,1.48,1.48,0,0,0,92.83,90.72Zm0-50.71c-.88,1.1-1.73,2.18-2.61,3.24a1.33,1.33,0,0,0-.24.8c-.25,2.22-.28,4.46-.36,6.69a2.92,2.92,0,0,0,0,.66c.07.43.27.58.61.21a8.24,8.24,0,0,0,2.36-4A37.43,37.43,0,0,0,92.87,40ZM77.25,118.32V116.9c0-.65-.22-.93-.93-.77a2.68,2.68,0,0,0-2,2.2,66.08,66.08,0,0,0-.34,6.89c0,.3-.14.73.17.88s.56-.3.78-.53C76.84,123.54,77.33,121,77.25,118.32Zm0-50.87c0-.5,0-1,0-1.51s-.14-.66-.62-.63a2.74,2.74,0,0,0-2.29,2.08c-.27,2.38-.33,4.78-.38,7.17a2.43,2.43,0,0,0,0,.38c.08.37.26.51.57.2s.38-.42.57-.63C77,72.5,77.24,70,77.22,67.45Zm4.14,34.2c.12,1.45.25,3.18.41,4.91,0,.28,0,.66.46.71a1.92,1.92,0,0,0,2-1.76c0-1.92-.09-3.85.13-5.77.08-.62-.15-.67-.62-.38-.63.37-1.25.74-1.89,1.09C81.47,100.66,81.27,100.94,81.36,101.65Zm2.86-49.71h0c.06-1,.11-2,.16-2.93,0-.19.11-.4,0-.54s-.42,0-.6.13c-.63.35-1.25.73-1.88,1.09a.77.77,0,0,0-.48.75c.15,1.82.3,3.64.46,5.46,0,.24.06.51.39.58a2,2,0,0,0,2-1.61ZM68.62,123.2c.08-.52-.11-.65-.57-.38-.68.41-1.36.8-2,1.2a.7.7,0,0,0-.41.69q.23,2.79.48,5.56a.49.49,0,0,0,.36.5,2,2,0,0,0,2-1.6C68.51,127.18,68.43,125.19,68.62,123.2Zm7.49-15.85c-.06-.56-.13-1.13-.18-1.69s-.06-1.13-.13-1.69c0-.37-.08-.75-.67-.67-1.94.24-2.43.72-2.58,2.63,0,.34-.09.68-.13,1-.26,2.4-.26,2.4,2.14,2.13C76.14,108.91,76.14,108.91,76.11,107.35Zm0-50.67c-.07-.75-.17-1.5-.21-2.26-.12-2.11-.1-2.07-2.11-1.52-.87.23-1.32.6-1.23,1.56a9.55,9.55,0,0,1-.11,1.5c-.21,2.81-.82,2.7,2.28,2.32C76.15,58.11,76.14,58.1,76.11,56.68ZM60.39,131c-.07-.69-.18-1.38-.21-2.07-.11-2.83-.13-2.27-2.54-1.61a.93.93,0,0,0-.79,1,22.56,22.56,0,0,1-.32,3.57c-.09.68.19.94.84.87s1.13-.13,1.69-.21C60.42,132.38,60.41,132.37,60.39,131Zm0-50.75c-.08-1.15-.15-2.22-.22-3.29-.06-.77-.32-1.2-1.2-.79a7.83,7.83,0,0,1-1.35.42.79.79,0,0,0-.7.87,23.78,23.78,0,0,1-.34,3.76c-.08.61.24.81.78.76s1.12-.13,1.68-.22C60.37,81.56,60.37,81.55,60.34,80.25Zm8.14-4.87a24.19,24.19,0,0,1,.12-3c.06-.35,0-.61-.43-.36L66,73.28a.71.71,0,0,0-.36.72c.16,1.78.32,3.56.49,5.34,0,.23,0,.52.33.62a2.13,2.13,0,0,0,2.06-1.47C68.49,77.48,68.48,76.48,68.48,75.38ZM67.15,55.82c0-1.35,0-1.35-1.34-1.18l-.56.07a.88.88,0,0,0-.86,1c0,.79,0,1.57,0,2.35,0,1,.7.79,1.28.8S67,59,67,58.08C67,57.32,67.1,56.57,67.15,55.82Zm0,50.95c0-1.5,0-1.51-1.19-1.36-1.56.19-1.59.21-1.57,1.8,0,.57,0,1.13,0,1.7a.67.67,0,0,0,.47.72c1.29.43,2-.06,2.13-1.36C67.06,107.7,67.12,107.14,67.15,106.77ZM48.66,131.13h0v.47c0,1.57.38,1.83,2,1.55.36-.06.59-.21.62-.58.06-1.07.12-2.13.17-3.2a.49.49,0,0,0-.48-.57c-1.64-.18-2.3.41-2.28,2Zm0-50.82h0c0,.31,0,.63,0,.94s-.11.94.4,1A2.68,2.68,0,0,0,51,82.18a.55.55,0,0,0,.19-.41c.07-1,.14-2.07.19-3.1,0-.34-.06-.61-.51-.63-1.73-.11-2.24.35-2.22,2.08Z"/></g></g></g></svg>